<?xml version="1.0" encoding="utf-8"?>
<!-- Generator: Adobe Illustrator 21.0.1, SVG Export Plug-In . SVG Version: 6.00 Build 0)  -->
<svg version="1.1" id="Layer_1" xmlns="http://www.w3.org/2000/svg" xmlns:xlink="http://www.w3.org/1999/xlink" x="0px" y="0px"
	 viewBox="0 0 439 118" style="enable-background:new 0 0 439 118;" xml:space="preserve">
<style type="text/css">
	.st0{fill:#FFFFFF;}
</style>
<g>
	<g>
		<g>
			<g>
				<path class="st0" d="M128.7,79.1c0,0.4-0.1,0.7-0.2,1.1c-0.1,0.4-0.3,0.7-0.6,1s-0.6,0.5-0.9,0.7c-0.4,0.2-0.8,0.3-1.3,0.3h-3.2
					v4.4h-1.1V75.9h4.3c0.5,0,0.9,0.1,1.3,0.3c0.4,0.2,0.7,0.4,0.9,0.7c0.2,0.3,0.4,0.6,0.5,1C128.7,78.3,128.7,78.7,128.7,79.1z
					 M127.7,79.1c0-0.3-0.1-0.6-0.2-0.9s-0.3-0.5-0.4-0.7c-0.2-0.2-0.4-0.3-0.7-0.4c-0.3-0.1-0.5-0.2-0.8-0.2h-3v4.2h3
					c0.3,0,0.6,0,0.8-0.1c0.3-0.1,0.5-0.2,0.7-0.4c0.2-0.2,0.3-0.4,0.4-0.7C127.6,79.7,127.7,79.4,127.7,79.1z"/>
				<path class="st0" d="M135.7,86.6V75.9h7v1h-5.9v3.8h5.1v1h-5.1v3.9h5.9v1C142.7,86.6,135.7,86.6,135.7,86.6z"/>
				<path class="st0" d="M153.5,75.8c1.1,0,2.1,0.3,2.9,0.9l-0.6,0.9c-0.3-0.2-0.7-0.4-1.1-0.5c-0.4-0.1-0.8-0.2-1.2-0.2
					c-0.3,0-0.7,0.1-1,0.2s-0.6,0.3-0.9,0.5c-0.3,0.2-0.5,0.5-0.6,0.8c-0.2,0.3-0.2,0.8-0.2,1.2V83c0,0.5,0.1,0.9,0.2,1.2
					c0.2,0.3,0.4,0.6,0.6,0.9c0.3,0.2,0.5,0.4,0.9,0.5c0.3,0.1,0.6,0.2,1,0.2s0.9-0.1,1.3-0.2c0.4-0.1,0.8-0.3,1.1-0.6l0.5,0.8
					c-0.3,0.2-0.7,0.5-1.2,0.6c-0.5,0.2-1.1,0.3-1.7,0.3c-0.5,0-1-0.1-1.5-0.2c-0.5-0.2-0.9-0.4-1.2-0.7c-0.3-0.3-0.6-0.7-0.8-1.1
					s-0.3-0.9-0.3-1.5v-3.9c0-0.5,0.1-1,0.3-1.4s0.5-0.8,0.8-1.1c0.3-0.3,0.7-0.5,1.2-0.7C152.5,75.9,153,75.8,153.5,75.8z"/>
				<path class="st0" d="M167.1,77v9.7H166V77h-3.2v-1h7.5v1H167.1z"/>
				<path class="st0" d="M184.3,83.2c0,0.5-0.1,1-0.3,1.5c-0.2,0.4-0.5,0.8-0.8,1.1c-0.3,0.3-0.7,0.5-1.2,0.7s-1,0.2-1.5,0.2
					c-0.6,0-1.1-0.1-1.6-0.3c-0.5-0.2-0.9-0.4-1.2-0.7c-0.3-0.3-0.6-0.7-0.8-1.1s-0.3-0.9-0.3-1.5v-3.7c0-0.5,0.1-1,0.3-1.5
					c0.2-0.4,0.4-0.8,0.8-1.1c0.3-0.3,0.7-0.6,1.2-0.7c0.5-0.2,1-0.3,1.6-0.3s1.1,0.1,1.6,0.3c0.5,0.2,0.9,0.4,1.2,0.7
					c0.3,0.3,0.6,0.7,0.8,1.1s0.3,0.9,0.3,1.5v3.8H184.3z M183.2,79.6c0-0.5-0.1-0.9-0.2-1.2c-0.1-0.3-0.4-0.6-0.6-0.8
					s-0.5-0.4-0.9-0.5c-0.3-0.1-0.7-0.2-1-0.2c-0.4,0-0.7,0.1-1.1,0.2c-0.3,0.1-0.6,0.3-0.9,0.5c-0.2,0.2-0.4,0.5-0.6,0.8
					c-0.1,0.3-0.2,0.8-0.2,1.2V83c0,0.5,0.1,0.9,0.2,1.2s0.4,0.6,0.6,0.8c0.3,0.2,0.6,0.4,0.9,0.5c0.3,0.1,0.7,0.2,1,0.2
					c0.4,0,0.7-0.1,1.1-0.2c0.3-0.1,0.6-0.3,0.9-0.5s0.4-0.5,0.6-0.8c0.1-0.3,0.2-0.8,0.2-1.2V79.6z"/>
				<path class="st0" d="M198.9,79.1c0,0.4-0.1,0.7-0.2,1.1c-0.1,0.4-0.3,0.7-0.6,1s-0.6,0.5-0.9,0.7c-0.4,0.2-0.8,0.3-1.3,0.3h-3.2
					v4.4h-1.1V75.9h4.3c0.5,0,0.9,0.1,1.3,0.3c0.4,0.2,0.7,0.4,0.9,0.7c0.2,0.3,0.4,0.6,0.5,1C198.8,78.3,198.9,78.7,198.9,79.1z
					 M197.8,79.1c0-0.3-0.1-0.6-0.2-0.9c-0.1-0.3-0.3-0.5-0.4-0.7c-0.2-0.2-0.4-0.3-0.7-0.4s-0.5-0.2-0.8-0.2h-3v4.2h3
					c0.3,0,0.6,0,0.8-0.1c0.3-0.1,0.5-0.2,0.7-0.4c0.2-0.2,0.3-0.4,0.4-0.7C197.7,79.7,197.8,79.4,197.8,79.1z"/>
				<path class="st0" d="M211.7,86.6c-0.1-0.4-0.3-0.8-0.4-1.2c-0.1-0.4-0.3-0.8-0.4-1.2h-4.6l-0.8,2.5h-1.1
					c0.6-1.8,1.2-3.6,1.8-5.3c0.6-1.8,1.2-3.5,1.8-5.3h1.1l3.7,10.7h-1.1V86.6z M208.6,77.4c-0.1,0.3-0.2,0.7-0.4,1.2
					s-0.4,1.1-0.5,1.7c-0.2,0.6-0.4,1.1-0.5,1.7c-0.2,0.5-0.3,0.9-0.4,1.3h3.9c-0.1-0.3-0.2-0.7-0.4-1.3c-0.2-0.5-0.4-1.1-0.6-1.7
					c-0.2-0.6-0.4-1.1-0.6-1.7C208.9,78.1,208.7,77.7,208.6,77.4L208.6,77.4z"/>
				<path class="st0" d="M226.2,86.6v-4.9h-5.5v4.9h-1.1V75.9h1.1v4.8h5.5v-4.8h1.1v10.7H226.2z"/>
			</g>
		</g>
		<g>
			<path class="st0" d="M138,44h-10.6c-0.3,0-0.6,0.3-0.6,0.6v18.9c0,0.3-0.3,0.6-0.6,0.6H122c-0.3,0-0.6-0.3-0.6-0.6V40
				c0-0.3,0.3-0.6,0.6-0.6h16c0.3,0,0.6,0.3,0.6,0.6v3.4C138.6,43.7,138.4,44,138,44z"/>
			<path class="st0" d="M146.2,64.1H142c-0.3,0-0.6-0.3-0.6-0.6V40c0-0.3,0.3-0.6,0.6-0.6h4.2c0.3,0,0.6,0.3,0.6,0.6v23.6
				C146.8,63.9,146.5,64.1,146.2,64.1z"/>
			<path class="st0" d="M163.2,39.3c4.3,0,7.9,1.8,7.9,6.2c0,2-0.9,3.5-2.3,4.5c-0.4,0.3-0.3,0.8,0.1,1c2,0.9,3.3,2.7,3.3,5.6
				c0,4.8-3.7,7.4-8.3,7.4h-11.7c-0.3,0-0.6-0.3-0.6-0.6V40c0-0.3,0.3-0.6,0.6-0.6h11V39.3z M156.8,48.8c0,0.3,0.3,0.6,0.6,0.6h4.3
				c2,0,4.1-0.4,4.1-2.9s-2-2.9-4.1-2.9h-4.3c-0.3,0-0.6,0.3-0.6,0.6V48.8z M156.8,59.2c0,0.3,0.3,0.6,0.6,0.6h4.8
				c2.3,0,4.6-0.5,4.6-3.4c0-3-2.4-3.4-4.8-3.4h-4.5c-0.3,0-0.6,0.3-0.6,0.6v5.6H156.8z"/>
			<path class="st0" d="M180.8,64.1h-4.2c-0.3,0-0.6-0.3-0.6-0.6V40c0-0.3,0.3-0.6,0.6-0.6h4.2c0.3,0,0.6,0.3,0.6,0.6v23.6
				C181.4,63.9,181.1,64.1,180.8,64.1z"/>
			<path class="st0" d="M206.4,39.3c5.3,0,9,2.5,9,8c0,5.4-3.8,7.9-8.8,7.9h-4.9c-0.3,0-0.6,0.3-0.6,0.6v7.7c0,0.3-0.3,0.6-0.6,0.6
				h-4.1c-0.3,0-0.6-0.3-0.6-0.6V40c0-0.3,0.3-0.6,0.6-0.6h10V39.3z M201.2,50.3c0,0.3,0.3,0.6,0.6,0.6h4.2c2.4,0,4.2-0.8,4.2-3.6
				c0-2.6-1.8-3.6-4.2-3.6h-4.2c-0.3,0-0.6,0.3-0.6,0.6V50.3z"/>
			<path class="st0" d="M220,60.3c0-0.4,0.4-0.7,0.8-0.6c0.5,0.2,1.2,0.3,1.8,0.3c1.7,0,2.5-1,2.5-2.1s-0.7-2.2-1.1-3.2l-6.8-14.4
				c-0.2-0.4,0.1-0.9,0.6-0.9h4.6c0.2,0,0.5,0.1,0.6,0.4l4.9,11.4c0.2,0.5,0.9,0.5,1.1,0l4.8-11.4c0.1-0.2,0.3-0.4,0.6-0.4h4.4
				c0.4,0,0.7,0.5,0.6,0.9l-7.9,17.4c-2.3,5-4.2,7-8.2,7c-1,0-2-0.2-2.6-0.4c-0.3-0.1-0.4-0.3-0.4-0.6v-3.4H220z"/>
			<path class="st0" d="M253.8,48.3c5,0,8.8,2.5,8.8,7.9c0,5.5-3.7,8-9,8h-10.9c-0.3,0-0.6-0.3-0.6-0.6V40c0-0.3,0.3-0.6,0.6-0.6
				h17.1c0.3,0,0.6,0.3,0.6,0.6v3.3c0,0.3-0.3,0.6-0.6,0.6H248c-0.3,0-0.6,0.3-0.6,0.6v3.2c0,0.3,0.3,0.6,0.6,0.6
				C248,48.3,253.8,48.3,253.8,48.3z M253.1,52.5H248c-0.3,0-0.6,0.3-0.6,0.6V59c0,0.3,0.3,0.6,0.6,0.6h5.1c2.6,0,4.2-0.9,4.2-3.6
				C257.3,53.5,255.5,52.5,253.1,52.5z"/>
			<path class="st0" d="M271.2,64.1H267c-0.3,0-0.6-0.3-0.6-0.6V40c0-0.3,0.3-0.6,0.6-0.6h4.2c0.3,0,0.6,0.3,0.6,0.6v23.6
				C271.8,63.9,271.5,64.1,271.2,64.1z"/>
			<path class="st0" d="M296.8,64.1h-4.2c-0.3,0-0.6-0.3-0.6-0.6V54c0-0.3-0.3-0.6-0.6-0.6h-8.9c-0.3,0-0.6,0.3-0.6,0.6v9.5
				c0,0.3-0.3,0.6-0.6,0.6h-4.2c-0.3,0-0.6-0.3-0.6-0.6V40c0-0.3,0.3-0.6,0.6-0.6h4.2c0.3,0,0.6,0.3,0.6,0.6v8.1
				c0,0.3,0.3,0.6,0.6,0.6h8.9c0.3,0,0.6-0.3,0.6-0.6V40c0-0.3,0.3-0.6,0.6-0.6h4.2c0.3,0,0.6,0.3,0.6,0.6v23.6
				C297.4,63.9,297.1,64.1,296.8,64.1z"/>
			<path class="st0" d="M302.7,39.3h4.2c0.3,0,0.6,0.3,0.6,0.6v18.9c0,0.3,0.3,0.6,0.6,0.6h7c0.3,0,0.6-0.3,0.6-0.6V40
				c0-0.3,0.3-0.6,0.6-0.6h4.2c0.3,0,0.6,0.3,0.6,0.6v18.9c0,0.3,0.3,0.6,0.6,0.6h7c0.3,0,0.6-0.3,0.6-0.6V40c0-0.3,0.3-0.6,0.6-0.6
				h4.2c0.3,0,0.6,0.3,0.6,0.6v23.6c0,0.3-0.3,0.6-0.6,0.6h-31.4c-0.3,0-0.6-0.3-0.6-0.6V40C302.1,39.6,302.4,39.3,302.7,39.3z"/>
			<path class="st0" d="M357.1,44h-6.2c-0.3,0-0.6,0.3-0.6,0.6v18.9c0,0.3-0.3,0.6-0.6,0.6h-4.2c-0.3,0-0.6-0.3-0.6-0.6V44.6
				c0-0.3-0.3-0.6-0.6-0.6h-6.2c-0.3,0-0.6-0.3-0.6-0.6V40c0-0.3,0.3-0.6,0.6-0.6h19c0.3,0,0.6,0.3,0.6,0.6v3.4
				C357.7,43.7,357.5,44,357.1,44z"/>
			<path class="st0" d="M378.5,43.8h-11.9c-0.3,0-0.6,0.3-0.6,0.6v4.2c0,0.3,0.3,0.6,0.6,0.6h10.8c0.3,0,0.6,0.3,0.6,0.6v3.1
				c0,0.3-0.3,0.6-0.6,0.6h-10.8c-0.3,0-0.6,0.3-0.6,0.6V59c0,0.3,0.3,0.6,0.6,0.6h12.1c0.3,0,0.6,0.3,0.6,0.6v3.3
				c0,0.3-0.3,0.6-0.6,0.6h-17.5c-0.3,0-0.6-0.3-0.6-0.6V40c0-0.3,0.3-0.6,0.6-0.6h17.3c0.3,0,0.6,0.3,0.6,0.6v3.2
				C379.1,43.5,378.8,43.8,378.5,43.8z"/>
			<path class="st0" d="M403.3,64.1h-4.2c-0.3,0-0.6-0.3-0.6-0.6V46.9h-0.1l-9.1,16.9c-0.1,0.2-0.3,0.3-0.5,0.3h-5.1
				c-0.3,0-0.6-0.3-0.6-0.6V40c0-0.3,0.3-0.6,0.6-0.6h4.2c0.3,0,0.6,0.3,0.6,0.6v16.6h0.1l9.1-16.8c0.1-0.2,0.3-0.3,0.5-0.3h5.1
				c0.3,0,0.6,0.3,0.6,0.6v23.6C403.9,63.9,403.6,64.1,403.3,64.1z"/>
			<path class="st0" d="M428.9,64.1h-4.2c-0.3,0-0.6-0.3-0.6-0.6V54c0-0.3-0.3-0.6-0.6-0.6h-8.9c-0.3,0-0.6,0.3-0.6,0.6v9.5
				c0,0.3-0.3,0.6-0.6,0.6h-4.2c-0.3,0-0.6-0.3-0.6-0.6V40c0-0.3,0.3-0.6,0.6-0.6h4.2c0.3,0,0.6,0.3,0.6,0.6v8.1
				c0,0.3,0.3,0.6,0.6,0.6h8.9c0.3,0,0.6-0.3,0.6-0.6V40c0-0.3,0.3-0.6,0.6-0.6h4.2c0.3,0,0.6,0.3,0.6,0.6v23.6
				C429.5,63.9,429.3,64.1,428.9,64.1z"/>
			<path class="st0" d="M393.4,37.9c-1,0-1.8-0.2-2.4-0.5c-0.7-0.4-1.2-0.8-1.6-1.3s-0.7-1.1-0.9-1.7c-0.1-0.3-0.2-0.7-0.2-1
				c-0.1-0.4,0.2-0.7,0.6-0.7h2c0.3,0,0.5,0.2,0.6,0.5c0,0.1,0,0.2,0.1,0.3c0.1,0.3,0.2,0.5,0.4,0.7c0.2,0.2,0.4,0.4,0.6,0.6
				c0.3,0.2,0.6,0.2,0.9,0.2c0.4,0,0.7-0.1,1-0.2c0.3-0.2,0.5-0.3,0.7-0.6c0.2-0.2,0.3-0.5,0.4-0.7c0-0.1,0.1-0.2,0.1-0.3
				c0.1-0.3,0.3-0.5,0.6-0.5h1.9c0.4,0,0.7,0.4,0.6,0.7s-0.1,0.6-0.3,1c-0.2,0.6-0.5,1.2-0.9,1.7s-0.9,1-1.6,1.3
				C395.2,37.7,394.4,37.9,393.4,37.9z"/>
		</g>
	</g>
	<g>
		<path class="st0" d="M53.5,104.4c-24.7,0-44.7-20.1-44.7-44.7C8.8,35,28.9,15,53.5,15s44.7,20,44.7,44.6
			C98.2,84.3,78.1,104.4,53.5,104.4z M53.5,17C30,17,10.8,36.1,10.8,59.7s19.1,42.7,42.7,42.7s42.7-19.1,42.7-42.7S77,17,53.5,17z"
			/>
		<path class="st0" d="M53.5,108.8c-27.1,0-49.1-22-49.1-49.1s22-49.1,49.1-49.1s49.1,22,49.1,49.1
			C102.6,86.7,80.5,108.8,53.5,108.8z M53.5,12.6c-25.9,0-47.1,21.1-47.1,47.1c0,25.9,21.1,47.1,47.1,47.1s47.1-21.1,47.1-47.1
			C100.5,33.7,79.4,12.6,53.5,12.6z"/>
		<path class="st0" d="M85.9,67.1c-0.5-0.5-1.3-0.5-1.7,0l-5.4,5l-5.4-5c-0.5-0.5-1.3-0.5-1.7,0l-5.4,5l-5.4-5
			c-0.5-0.5-1.3-0.5-1.7,0l-5.4,5l-5.4-5c-0.5-0.5-1.3-0.5-1.7,0l-5.4,5l-5.4-5c-0.5-0.5-1.3-0.5-1.7,0l-5.4,5l-5.4-5
			c-0.5-0.5-1.3-0.5-1.7,0l-5,4.6c0.3,0.9,0.6,1.8,1,2.6l4.9-4.5l5.4,5c0.5,0.5,1.3,0.5,1.7,0l5.4-5l5.4,5c0.5,0.5,1.3,0.5,1.7,0
			l5.4-5l5.4,5c0.5,0.5,1.3,0.5,1.7,0l5.4-5l5.4,5c0.5,0.5,1.3,0.5,1.7,0l5.4-5l5.4,5c0.5,0.5,1.3,0.5,1.7,0l5.4-5l4.9,4.5
			c0.3-0.9,0.7-1.7,1-2.6L85.9,67.1z"/>
		<path class="st0" d="M84.1,77.2l-5.4,5l-5.4-5c-0.5-0.5-1.3-0.5-1.7,0l-5.4,5l-5.4-5c-0.5-0.5-1.3-0.5-1.7,0l-5.4,5l-5.4-5
			c-0.5-0.5-1.3-0.5-1.7,0l-5.4,5l-5.4-5c-0.5-0.5-1.3-0.5-1.7,0l-5.4,5l-5.4-5c-0.5-0.5-1.3-0.5-1.7,0l-1.8,1.7
			c0.4,0.8,0.9,1.5,1.4,2.2l1.3-1.2l5.4,5c0.5,0.5,1.3,0.5,1.7,0l5.4-5l5.4,5c0.5,0.5,1.3,0.5,1.7,0l5.4-5l5.4,5
			c0.5,0.5,1.3,0.5,1.7,0l5.4-5l5.4,5c0.5,0.5,1.3,0.5,1.7,0l5.4-5l5.4,5c0.5,0.5,1.3,0.5,1.7,0l5.4-5l1.3,1.2
			c0.5-0.7,0.9-1.5,1.4-2.2l-1.8-1.7C85.4,76.8,84.6,76.8,84.1,77.2z"/>
		<path class="st0" d="M71.5,87.4l-5.4,5l-5.4-5c-0.5-0.5-1.3-0.5-1.7,0l-5.4,5l-5.4-5c-0.5-0.5-1.3-0.5-1.7,0l-5.4,5l-5.4-5
			c-0.5-0.5-1.3-0.5-1.7,0L30.1,91c0.7,0.5,1.4,1,2.2,1.5l2.6-2.4l5.4,5c0.5,0.5,1.3,0.5,1.7,0l5.4-5l5.4,5c0.5,0.5,1.3,0.5,1.7,0
			l5.4-5l5.4,5c0.5,0.5,1.3,0.5,1.7,0l5.4-5l2.6,2.4c0.7-0.5,1.5-1,2.2-1.5l-3.9-3.6C72.8,86.9,72,86.9,71.5,87.4z"/>
		<path class="st0" d="M22.3,63.7c0.4,0,0.8-0.2,1.1-0.6l13.8-20.3l4.2-0.8l2.9,2.7c0.5,0.4,1.1,0.5,1.6,0.1l5.5-4l3.3,2.3
			c0.6,0.4,1.4,0.3,1.8-0.3c0.4-0.6,0.3-1.4-0.3-1.8l-4-2.9c-0.5-0.3-1.1-0.3-1.5,0L45.4,42l-2.6-2.4c-0.3-0.3-0.7-0.4-1.1-0.3
			l-5.3,1c-0.3,0.1-0.6,0.3-0.8,0.5L21.2,61.7c-0.4,0.6-0.2,1.4,0.3,1.8C21.8,63.6,22,63.7,22.3,63.7z"/>
		<path class="st0" d="M84.7,62.6L73,46c-0.2-0.3-0.5-0.5-0.8-0.5l-6.1-1.3L54.9,26c-0.3-0.5-1-0.7-1.5-0.5l-4.8,1.7
			c-0.3,0.1-0.5,0.3-0.7,0.5l-5.6,9c-0.4,0.6-0.2,1.4,0.4,1.8c0.6,0.4,1.4,0.2,1.8-0.4l5.4-8.6l3.4-1.2L69.7,55
			c0.2,0.4,0.7,0.6,1.1,0.6c0.2,0,0.5-0.1,0.7-0.2c0.6-0.4,0.8-1.2,0.4-1.8L68,47.2l3.2,0.7L82.6,64c0.3,0.4,0.6,0.5,1.1,0.5
			c0.3,0,0.5-0.1,0.7-0.2C84.9,63.9,85.1,63.1,84.7,62.6z"/>
	</g>
</g>
</svg>
