<?xml version="1.0" encoding="utf-8"?>
<!-- Generator: Adobe Illustrator 21.0.1, SVG Export Plug-In . SVG Version: 6.00 Build 0)  -->
<svg version="1.1" id="Layer_1" xmlns="http://www.w3.org/2000/svg" xmlns:xlink="http://www.w3.org/1999/xlink" x="0px" y="0px"
	 viewBox="0 0 66.3 62.8" style="enable-background:new 0 0 66.3 62.8;" xml:space="preserve">
<style type="text/css">
	.st0{fill:#FFFFFF;}
	.st1{fill-rule:evenodd;clip-rule:evenodd;fill:none;stroke:#FFFFFF;stroke-miterlimit:10;}
	.st2{fill-rule:evenodd;clip-rule:evenodd;fill:#1E8EA2;}
	.st3{fill-rule:evenodd;clip-rule:evenodd;fill:#FFFFFF;}
</style>
<g>
	<path class="st2" d="M32.4,1.1c16.6,0,30,13.4,30,30s-13.4,30-30,30c-16.6,0-30-13.4-30-30S15.8,1.1,32.4,1.1z"/>
	<g>
		<g>
			<path class="st0" d="M28.4,26.9l0.8-0.8l0.9-0.9c0.3-0.3,0.3-0.8,0-1.2L26,19.8c-0.3-0.3-0.8-0.3-1.1,0c-0.7,0.7-1.4,1.4-2.1,2.1
				l5.3,5.3C28.2,27.1,28.3,27,28.4,26.9z M32.5,35.9c-0.9-0.7-1.7-1.5-2.5-2.4c-0.8-0.8-1.6-1.6-2.4-2.5c-0.6-0.7-0.7-1.7-0.4-2.6
				L21.8,23c-1.3,1.3-1.1,4.5,0.3,7.4c0.6,1.2,1.4,2.3,2.2,3.4c0.8,1,1.7,2,2.6,3c0.9,0.9,1.9,1.8,3,2.6c1.1,0.8,2.2,1.6,3.4,2.2
				c2.8,1.4,6.1,1.5,7.4,0.3l-5.5-5.5C34.3,36.6,33.2,36.5,32.5,35.9z M43.7,37.5l-4.1-4.1c-0.3-0.3-0.8-0.3-1.2,0h0l-0.9,0.9
				l-0.8,0.8c-0.1,0.1-0.2,0.2-0.3,0.3l5.3,5.3c0.7-0.7,1.4-1.4,2.1-2.1C44,38.3,44,37.8,43.7,37.5z"/>
		</g>
	</g>
</g>
</svg>
