<?xml version="1.0" encoding="utf-8"?>
<!-- Generator: Adobe Illustrator 21.0.1, SVG Export Plug-In . SVG Version: 6.00 Build 0)  -->
<svg version="1.1" id="Layer_1" xmlns="http://www.w3.org/2000/svg" xmlns:xlink="http://www.w3.org/1999/xlink" x="0px" y="0px"
	 viewBox="0 0 37 35" style="enable-background:new 0 0 37 35;" xml:space="preserve">
<style type="text/css">
	.st0{fill:#FFFFFF;}
	.st1{fill-rule:evenodd;clip-rule:evenodd;fill:none;stroke:#FFFFFF;stroke-miterlimit:10;}
	.st2{fill-rule:evenodd;clip-rule:evenodd;fill:#1E8EA2;}
	.st3{fill-rule:evenodd;clip-rule:evenodd;fill:#FFFFFF;}
</style>
<g>
	<path class="st1" d="M18.8,1.1c8.8,0,16,7.2,16,16c0,8.8-7.2,16-16,16c-8.8,0-16-7.2-16-16C2.8,8.3,9.9,1.1,18.8,1.1z"/>
	<g>
		<g>
			<path class="st0" d="M21,11.3c0.6,0.1,1.1,0.2,1.7,0.4c1,0.3,1.9,0.7,2.7,1.2c0.1,0,0.1,0.1,0.2,0.1c1,0,2,0,3,0
				c0.1,0,0.2,0,0.2,0c0,0,0,0,0,0c0,0.1-0.1,0.1-0.1,0.2c-0.3,0.5-0.6,1.1-0.8,1.7c0,0.1,0,0.1,0,0.2c0.9,1.3,1.2,2.7,0.8,4.2
				c-0.3,1.3-1.1,2.4-2.2,3.1c-0.8,0.5-1.7,0.8-2.7,0.8c-0.4,0-0.8-0.1-1.2-0.2c-1-0.3-1.8-0.7-2.5-1.5c-0.1-0.1-0.2-0.2-0.3-0.3
				c-0.4,0.5-0.7,1.1-1.1,1.6c-0.4-0.5-0.7-1.1-1.1-1.6c0,0,0,0,0,0c0,0,0,0,0,0c-0.8,1-1.9,1.6-3.1,1.8c-0.7,0.1-1.4,0.1-2.1-0.1
				c-1-0.3-1.8-0.8-2.5-1.5c-0.7-0.7-1.1-1.6-1.2-2.6c-0.2-0.9,0-1.8,0.1-2c0.2-0.6,0.4-1.2,0.8-1.7c0,0,0-0.1,0-0.1
				c-0.2-0.6-0.4-1.1-0.7-1.5c-0.1-0.1-0.2-0.2-0.3-0.4c0,0,0,0,0,0c0,0,0,0,0.1,0c1,0,2,0,3.1,0c0,0,0.1,0,0.1,0
				c0.7-0.5,1.5-0.8,2.3-1.1c0.6-0.2,1.2-0.4,1.8-0.5c0.6-0.1,1.2-0.2,1.8-0.2C19.1,11,20.3,11.2,21,11.3z M19.8,18
				c0,2.2,1.8,4.1,4,4.1c2.2,0,4-1.8,4-4c0-2.3-1.9-4.1-4.1-4C21.5,14.1,19.8,15.8,19.8,18z M13.7,14c-2.2,0-4.1,1.8-4,4.1
				c0,2.2,1.8,4,4.1,4c2.2,0,4-1.8,4-4C17.7,15.8,15.9,14,13.7,14z M13.9,12.9c1.2,0.1,2.3,0.5,3.2,1.3c0.9,0.8,1.4,1.9,1.6,3.1
				c0.2-1.2,0.7-2.2,1.6-3c0.9-0.8,2-1.3,3.2-1.3c-1.4-0.6-2.9-0.9-4.5-0.9C17.3,12,15.5,12.3,13.9,12.9z"/>
			<path class="st0" d="M23.8,15.5c1.4,0,2.5,1.1,2.5,2.5c0,1.4-1.1,2.5-2.4,2.5c-1.5,0.1-2.6-1.1-2.6-2.5
				C21.3,16.6,22.5,15.5,23.8,15.5z M25.4,18c0-0.9-0.7-1.6-1.6-1.6c-0.9,0-1.6,0.7-1.6,1.6c0,0.9,0.7,1.6,1.6,1.6
				C24.7,19.6,25.4,18.9,25.4,18z"/>
			<path class="st0" d="M13.6,15.5c1.4,0,2.5,1.1,2.5,2.5c0,1.4-1.1,2.4-2.4,2.5c-1.5,0.1-2.6-1.1-2.6-2.5
				C11.1,16.6,12.3,15.5,13.6,15.5z M15.3,18c0-0.9-0.7-1.6-1.7-1.6c-0.9,0-1.6,0.7-1.6,1.6c0,0.9,0.7,1.6,1.6,1.6
				C14.5,19.6,15.3,18.9,15.3,18z"/>
			<path class="st0" d="M23.8,17.2c0.5,0,0.8,0.4,0.8,0.8c0,0.5-0.4,0.8-0.8,0.8c-0.5,0-0.8-0.4-0.8-0.8
				C23,17.5,23.3,17.2,23.8,17.2z"/>
			<path class="st0" d="M13.6,17.2c0.5,0,0.8,0.4,0.8,0.8c0,0.5-0.4,0.8-0.8,0.8c-0.5,0-0.8-0.4-0.8-0.8
				C12.8,17.5,13.2,17.2,13.6,17.2z"/>
		</g>
	</g>
</g>
</svg>
