<?xml version="1.0" encoding="utf-8"?>
<!-- Generator: Adobe Illustrator 21.0.1, SVG Export Plug-In . SVG Version: 6.00 Build 0)  -->
<svg version="1.1" id="Layer_1" xmlns="http://www.w3.org/2000/svg" xmlns:xlink="http://www.w3.org/1999/xlink" x="0px" y="0px"
	 viewBox="0 0 37 35" style="enable-background:new 0 0 37 35;" xml:space="preserve">
<style type="text/css">
	.st0{fill:#FFFFFF;}
	.st1{fill-rule:evenodd;clip-rule:evenodd;fill:none;stroke:#FFFFFF;stroke-miterlimit:10;}
	.st2{fill-rule:evenodd;clip-rule:evenodd;fill:#1E8EA2;}
	.st3{fill-rule:evenodd;clip-rule:evenodd;fill:#FFFFFF;}
</style>
<path class="st0" d="M21.3,17.3h-1.8c0,2.9,0,6.5,0,6.5h-2.7c0,0,0-3.6,0-6.5h-1.3V15h1.3v-1.5c0-1.1,0.5-2.7,2.7-2.7l2,0V13
	c0,0-1.2,0-1.4,0c-0.2,0-0.6,0.1-0.6,0.6V15h2L21.3,17.3z"/>
<path class="st1" d="M18.5,1.2c8.8,0,16,7.2,16,16c0,8.8-7.2,16-16,16c-8.8,0-16-7.2-16-16C2.5,8.4,9.7,1.2,18.5,1.2z"/>
</svg>
